<?xml version="1.0" encoding="utf-8"?>
<!-- Generator: Adobe Illustrator 16.0.0, SVG Export Plug-In . SVG Version: 6.00 Build 0)  -->
<!DOCTYPE svg PUBLIC "-//W3C//DTD SVG 1.1//EN" "http://www.w3.org/Graphics/SVG/1.1/DTD/svg11.dtd">
<svg version="1.1" id="Layer_1" xmlns="http://www.w3.org/2000/svg" xmlns:xlink="http://www.w3.org/1999/xlink" x="0px" y="0px"
	 width="1028px" height="572px" viewBox="0 0 1028 572" enable-background="new 0 0 1028 572" xml:space="preserve">
<g>
	<g>
		<path fill="#008300" d="M800.8,554.5l-123.5-71.4c-32.899-18.3-50.7-33.5-66-64.8c0,0,138.8-22.5,234-17.7
			c118.101,6,183.2,17.7,183.2,17.7L977.6,507C941.8,569.1,862.7,590.3,800.8,554.5z"/>
		<path fill="#01D809" d="M1028.4,418.3h-897c-72.4,0-131-58.7-131-131.2v-156c0-72.5,58.7-131.2,131-131.2h655.4L1028.4,418.3z"/>
	</g>
	<g display="none">
		<path display="inline" fill="#FFFFFF" d="M157.9,218.8v58.3c0,1.6-1.3,2.9-2.9,2.9h-33.7c-1.6,0-2.9-1.3-2.9-2.9V117.6
			c0-1.6,1.3-2.9,2.9-2.9H201c1.6,0,2.9,1.3,2.9,2.9v34c0,1.6-1.3,2.9-2.9,2.9h-43.2V184H201c1.6,0,2.9,1.3,2.9,2.9v29
			c0,1.6-1.3,2.9-2.9,2.9H157.9z"/>
		<path display="inline" fill="#FFFFFF" d="M214.5,114.7h32.4c1.6,0,2.9,1.3,2.9,2.9v159.5c0,1.6-1.3,2.9-2.9,2.9h-32.4
			c-1.6,0-2.9-1.3-2.9-2.9V117.6C211.6,116,212.9,114.7,214.5,114.7z"/>
		<path display="inline" fill="#FFFFFF" d="M255,133c0-12.1,9.2-20.7,21.3-20.7c12.2,0,21.6,8.6,21.6,20.7
			c0,11.8-9.4,20.5-21.6,20.5C264.1,153.5,255,144.8,255,133z M292.9,280.1h-32.4c-1.6,0-2.9-1.3-2.9-2.9V161.4
			c0-1.6,1.3-2.9,2.9-2.9h32.4c1.6,0,2.9,1.3,2.9,2.9v115.7C295.8,278.8,294.5,280.1,292.9,280.1z"/>
		<path display="inline" fill="#FFFFFF" d="M627.2,133c0-12.1,9.2-20.7,21.3-20.7c12.2,0,21.6,8.6,21.6,20.7
			c0,11.8-9.399,20.5-21.6,20.5C636.4,153.5,627.2,144.8,627.2,133z M664.6,280.1H632.7c-1.601,0-2.9-1.3-2.9-2.9V161.4
			c0-1.6,1.3-2.9,2.9-2.9H664.6c1.601,0,2.9,1.3,2.9,2.9v115.7C667.5,278.8,666.2,280.1,664.6,280.1z"/>
		<path display="inline" fill="#FFFFFF" d="M338.8,166.1c3.4-3.9,14.7-10.3,32.2-10.3c34.2,0,58.3,25.9,58.3,62.6
			c0,37.1-21.899,64.2-56.3,64.2c-18.1,0-28.5-6.2-31.6-10v45.3c0,1.6-1.3,2.899-2.9,2.899h-32c-1.6,0-2.9-1.3-2.9-2.899V161.7
			c0-1.6,1.3-2.9,2.9-2.9H336c1.6,0,2.9,1.3,2.9,2.9v4.4H338.8z M365.8,248.6c15.4,0,25.6-12.9,25.6-30.4
			c0-17.7-10.4-29.1-25.6-29.1c-16.3,0-25.6,13.2-25.6,29.1C340.1,237,350.8,248.6,365.8,248.6z"/>
		<path display="inline" fill="#FFFFFF" d="M509.3,272.8c-2.5,3-11.2,9.5-29.6,9.5c-34.9,0-58.601-25.7-58.601-62.8
			c0-36.6,23.9-64.2,58.5-64.2c17.7,0,28.301,6.7,32.2,10.4V161c0-1.6,1.3-2.9,2.9-2.9h29.1c1.601,0,2.9,1.3,2.9,2.9v104
			c0,44.1-34.7,58-66,56.8c-15.7-0.6-28.9-3.7-41.2-10.399c-1.3-0.7-3.3-2.5-2.3-5.4l9.2-22.9c0.6-1.5,2.3-2.3,3.8-1.7
			c5.6,2.3,14.899,7.2,32.399,7.5C508.4,289.2,509.3,272.8,509.3,272.8z M485.2,189.5c-15.4,0-25.7,12-25.7,29.8
			c0,17.5,10.3,29.6,25.9,29.6c15.1,0,25.1-11.6,25.1-30.4C510.5,202.5,501.7,189.5,485.2,189.5z"/>
		<path display="inline" fill="#FFFFFF" d="M622.4,190.8c0,1.7-1.9,3-3.601,2.9c-0.8-0.1-1.7-0.1-2.8-0.1
			c-17.9,0-24.7,14.5-24.7,32.7V277c0,1.6-1.3,2.9-3,2.9h-31c-1.6,0-3-1.3-3-2.9V161.6c0-1.6,1.3-2.9,3-2.9H587.4
			c1.6,0,3.399,1.3,3.399,2.9v5.5c8.4-8.6,15-10.7,27.7-11.8c1.8-0.1,3.9,0.7,3.9,2.5V190.8L622.4,190.8z"/>
		<path display="inline" fill="#FFFFFF" d="M763.9,272.5c-3.4,3.9-13.2,9.7-30.9,9.7c-34.7,0-59-25.9-59-62.6
			c0-37.1,22.9-63.7,57.8-63.7c18.4,0,27.9,7.4,30.4,10.3v-48.7c0-1.6,1.3-2.9,2.899-2.9H796.7c1.6,0,2.899,1.3,2.899,2.9V277
			c0,1.6-1.3,2.9-2.899,2.9h-29.9c-1.6,0-2.899-2.2-2.899-3.8V272.5L763.9,272.5z M738.5,189.4c-15.6,0-25.1,12.9-25.1,30.4
			c0,17.7,10.6,29.1,25.899,29.1c16.5,0,25-12.7,25-30.1C764.4,200,753.7,189.4,738.5,189.4z"/>
	</g>
</g>
<g>
	<path fill="#FFFFFF" d="M48.662,255.139V129.104h41.13c14.737,0,25.789,3.296,33.158,9.888s11.054,16.216,11.054,28.872
		c0,7.149-1.518,13.711-4.552,19.688c-3.035,5.977-7.38,10.518-13.036,13.623l29.004,53.965h-34.041l-22.551-46.582h-9.404v46.582
		H48.662z M79.424,182.805h9.229c4.219,0,7.543-1.244,9.976-3.735c2.431-2.49,3.647-5.874,3.647-10.151
		c0-4.335-1.173-7.646-3.516-9.932c-2.344-2.285-6.211-3.428-11.602-3.428h-7.734V182.805z"/>
	<path fill="#FFFFFF" d="M140.992,208.117c0-9.198,1.918-17.578,5.757-25.137c3.837-7.559,9.316-13.564,16.436-18.018
		c7.119-4.452,15.19-6.68,24.214-6.68c14.941,0,26.425,4.526,34.453,13.579c8.027,9.053,12.041,21.695,12.041,37.925
		c0,2.461-0.059,4.425-0.176,5.889h-61.963c0.352,4.239,2.417,7.862,6.196,10.87s8.394,4.511,13.843,4.511
		c4.922,0,9.097-1.103,12.524-3.308s5.845-4.396,7.251-6.574l19.775,15.138c-0.821,1.722-2.184,3.638-4.087,5.746
		c-1.905,2.108-4.454,4.395-7.646,6.858c-3.194,2.465-7.295,4.514-12.305,6.146c-5.01,1.632-10.386,2.449-16.128,2.449
		c-10.138,0-19.043-2.184-26.719-6.548c-7.677-4.364-13.506-10.268-17.49-17.71C142.983,225.813,140.992,217.434,140.992,208.117z
		 M172.72,196.604h30.586c-0.176-3.95-1.641-7.281-4.395-9.994c-2.755-2.712-6.387-4.069-10.898-4.069
		c-4.629,0-8.233,1.401-10.811,4.201C174.624,189.543,173.129,192.83,172.72,196.604z"/>
	<path fill="#FFFFFF" d="M230.42,241.311l16.875-16.319c6.152,5.508,13.125,8.262,20.918,8.262c5.625,0,8.438-1.728,8.438-5.186
		c0-1.406-0.791-2.666-2.373-3.779c-1.582-1.112-3.647-2.109-6.196-2.988s-5.361-1.831-8.438-2.856
		c-3.076-1.024-6.152-2.343-9.229-3.955c-3.076-1.611-5.889-3.516-8.438-5.713s-4.614-5.111-6.196-8.745
		c-1.582-3.632-2.373-7.792-2.373-12.48c0-8.932,3.441-16.043,10.327-21.333c6.884-5.29,15.57-7.935,26.06-7.935
		c14.647,0,25.928,5.411,33.838,16.231l-19.424,15.41c-4.922-4.922-10.138-7.383-15.645-7.383c-2.168,0-3.854,0.411-5.054,1.23
		c-1.202,0.821-1.802,1.964-1.802,3.428c0,1.582,0.805,2.944,2.417,4.087c1.611,1.143,3.691,2.125,6.24,2.944
		c2.549,0.821,5.375,1.685,8.481,2.593c3.105,0.909,6.21,2.096,9.316,3.56c3.105,1.465,5.933,3.238,8.481,5.317
		c2.549,2.081,4.628,4.893,6.24,8.438c1.611,3.546,2.417,7.633,2.417,12.261c0,9.407-3.663,16.945-10.986,22.613
		c-7.325,5.667-16.523,8.5-27.598,8.5c-8.262,0-15.572-1.605-21.929-4.816C238.432,249.485,233.642,245.69,230.42,241.311z"/>
	<path fill="#FFFFFF" d="M302.359,208.117c0-9.198,1.918-17.578,5.757-25.137c3.837-7.559,9.316-13.564,16.436-18.018
		c7.119-4.452,15.19-6.68,24.214-6.68c14.941,0,26.425,4.526,34.453,13.579c8.027,9.053,12.041,21.695,12.041,37.925
		c0,2.461-0.059,4.425-0.176,5.889h-61.963c0.352,4.239,2.417,7.862,6.196,10.87s8.394,4.511,13.843,4.511
		c4.922,0,9.097-1.103,12.524-3.308s5.845-4.396,7.251-6.574l19.775,15.138c-0.821,1.722-2.184,3.638-4.087,5.746
		c-1.905,2.108-4.454,4.395-7.646,6.858c-3.194,2.465-7.295,4.514-12.305,6.146c-5.01,1.632-10.386,2.449-16.128,2.449
		c-10.138,0-19.043-2.184-26.719-6.548c-7.677-4.364-13.506-10.268-17.49-17.71C304.351,225.813,302.359,217.434,302.359,208.117z
		 M334.088,196.604h30.586c-0.176-3.95-1.641-7.281-4.395-9.994c-2.755-2.712-6.387-4.069-10.898-4.069
		c-4.629,0-8.233,1.401-10.811,4.201C335.991,189.543,334.497,192.83,334.088,196.604z"/>
	<path fill="#FFFFFF" d="M391.261,184.914v-24.258h9.141v-20.039h30.059v20.039h15.996v24.258H430.46v34.94
		c0,6.824,3.896,10.235,11.689,10.235c1.991,0,3.661-0.058,5.01-0.176v25.583c-2.637,0.698-6.475,1.048-11.514,1.048
		c-11.602,0-20.377-3.002-26.323-9.009c-5.948-6.005-8.921-15.776-8.921-29.312v-33.311H391.261z"/>
	<path fill="#FFFFFF" d="M480.207,255.139V129.104h66.621v27.598h-35.859v23.027h31.377v27.598h-31.377v47.813H480.207z"/>
	<path fill="#FFFFFF" d="M554.871,233.474c-4.337-7.528-6.504-15.981-6.504-25.356c0-9.374,2.241-17.886,6.724-25.532
		s10.635-13.608,18.457-17.886c7.822-4.276,16.537-6.416,26.147-6.416c15.15,0,27.564,4.658,37.246,13.975
		c9.681,9.316,14.521,21.153,14.521,35.508c0,9.375-2.222,17.857-6.665,25.444c-4.442,7.589-10.609,13.535-18.501,17.842
		c-7.891,4.307-16.758,6.46-26.602,6.46s-18.691-2.125-26.543-6.372C565.3,246.892,559.207,241.003,554.871,233.474z
		 M578.426,208.117c0,6.798,2.007,12.32,6.021,16.567c4.013,4.249,9.097,6.372,15.249,6.372c6.21,0,11.382-2.197,15.513-6.592
		s6.196-9.96,6.196-16.699c0-6.855-2.065-12.406-6.196-16.655c-4.131-4.248-9.303-6.372-15.513-6.372
		c-6.211,0-11.309,2.168-15.293,6.504C580.417,195.579,578.426,201.204,578.426,208.117z"/>
	<path fill="#FFFFFF" d="M654.495,255.139v-94.482h29.355v11.934c2.285-4.488,5.595-7.996,9.932-10.52
		c4.336-2.524,9.374-3.788,15.117-3.788v29.18c-1.641-0.233-3.252-0.352-4.834-0.352c-13.008,0-19.512,8.466-19.512,25.397v42.63
		H654.495z"/>
	<path fill="#FFFFFF" d="M711.492,255.139v-94.482h29.355v9.668c1.875-3.34,4.79-6.181,8.745-8.525
		c3.955-2.343,8.833-3.516,14.634-3.516c11.016,0,19.189,4.131,24.521,12.393c6.504-8.262,15.438-12.393,26.807-12.393
		c10.547,0,18.53,3.076,23.95,9.229c5.419,6.152,8.13,14.414,8.13,24.785v62.842h-30.059v-56.338c0-4.219-1.025-7.528-3.076-9.932
		c-2.052-2.402-4.864-3.604-8.438-3.604c-3.516,0-6.328,1.246-8.438,3.735c-2.109,2.491-3.164,5.757-3.164,9.8v56.338h-30.059
		v-56.338c0-4.219-0.997-7.528-2.988-9.932c-1.992-2.402-4.776-3.604-8.35-3.604c-3.574,0-6.387,1.187-8.438,3.56
		c-2.052,2.373-3.076,5.699-3.076,9.976v56.338H711.492z"/>
</g>
</svg>
